<svg width="82" height="82" viewBox="0 0 82 82" fill="none" xmlns="http://www.w3.org/2000/svg">
<circle cx="41" cy="41" r="40" fill="#495464"/>
<path d="M22.4934 62.2115C22.386 59.3469 22.2428 56.3928 22.0637 53.3492C21.9205 50.3056 21.7952 47.1366 21.6877 43.8424C21.6161 40.5123 21.5982 37.0211 21.634 33.3687C21.6698 29.7164 21.831 25.8492 22.1174 21.7672C21.6161 21.7672 21.1685 21.7134 20.7747 21.606C20.3808 21.4986 20.1838 21.0689 20.1838 20.317C20.1838 19.7799 20.3808 19.386 20.7747 19.1353C21.2043 18.8489 21.7773 18.7056 22.4934 18.7056C25.1431 18.1327 27.9003 17.7926 30.7649 17.6851C33.6653 17.5419 36.4583 17.6135 39.1438 17.9C41.8652 18.1864 44.3896 18.6519 46.717 19.2965C49.0803 19.941 51.0497 20.7287 52.6252 21.6597C54.2008 22.5907 55.2929 23.647 55.9016 24.8287C56.5103 26.0103 56.4387 27.2994 55.6868 28.6959C54.9706 30.0565 53.4667 31.5067 51.175 33.0465C48.8834 34.5504 45.6249 36.0901 41.3997 37.6656C46.914 37.9521 51.3899 38.5071 54.8274 39.3306C58.2649 40.1184 60.8609 41.0852 62.6155 42.231C64.37 43.3411 65.3547 44.5764 65.5696 45.9371C65.8202 47.262 65.498 48.6405 64.6028 50.0728C63.7434 51.4693 62.3827 52.8658 60.5208 54.2623C58.6946 55.6588 56.564 56.9478 54.1292 58.1295C51.7301 59.3111 49.134 60.3495 46.3411 61.2447C43.5481 62.1399 40.7372 62.8023 37.9084 63.232C35.0797 63.6617 32.3225 63.8049 29.637 63.6617C26.9872 63.5543 24.606 63.0709 22.4934 62.2115ZM28.5627 58.8814C35.7958 58.4517 41.704 57.5745 46.2874 56.2496C50.9065 54.9247 54.2724 53.4566 56.385 51.8453C58.5334 50.1981 59.4644 48.5689 59.178 46.9576C58.9273 45.3105 57.5308 43.9856 54.9885 42.983C52.482 41.9446 48.8655 41.3717 44.1389 41.2642C39.4482 41.1568 33.719 41.8013 26.9514 43.1978L28.5627 58.8814ZM34.5247 21.982C34.3456 21.982 33.8801 21.982 33.1282 21.982C32.3762 21.982 31.5706 22.0178 30.7112 22.0894C29.8518 22.1252 29.0461 22.2327 28.2942 22.4117C27.5422 22.5549 27.0946 22.7877 26.9514 23.1099L26.2532 36.6451C27.3632 36.6451 28.7418 36.5377 30.3889 36.3228C32.0361 36.0722 33.7548 35.732 35.5452 35.3023C37.3713 34.8726 39.1796 34.3534 40.97 33.7447C42.7603 33.136 44.3538 32.4735 45.7502 31.7574C47.1825 31.0412 48.3463 30.2714 49.2415 29.4478C50.1366 28.6243 50.5842 27.7828 50.5842 26.9234C50.5842 26.0998 50.262 25.4195 49.6174 24.8824C48.9729 24.3095 48.1493 23.844 47.1467 23.4859C46.1441 23.092 45.0162 22.8056 43.7629 22.6265C42.5455 22.4117 41.328 22.2685 40.1106 22.1968C38.929 22.0894 37.8368 22.0357 36.8342 22.0357C35.8316 21.9999 35.0618 21.982 34.5247 21.982Z" fill="#F4F4F2"/>
<path d="M7.99991 41C8.18025 41.5468 8.34901 41.3084 8.50982 41.2804C9.07115 41.1825 9.63248 41.0847 10.1938 40.9868C13.1693 40.4681 16.1587 40.7992 19.2715 41.9893C27.2979 45.0583 35.1165 44.8416 42.945 45.3302C45.0405 45.4609 47.1137 45.3291 49.194 45.2871C50.9011 45.2526 52.6842 46.2967 54.4121 46.5726C56.9932 46.9848 59.6649 48.4087 62.1946 48.1702C62.8457 48.1088 63.5476 48.6729 64.1917 48.5606C64.734 48.4661 65.4669 48.5191 66.0601 49.1581C67.4885 50.6968 68.7416 49.1335 70.1097 49.8267C70.7981 50.1755 71.4417 49.8817 72.0942 49.768C72.5345 49.6912 73.0121 49.9772 73.436 49.9033C73.9593 49.8121 74.4734 50.0918 75 50" stroke="#F4F4F2" stroke-width="3" stroke-linecap="round"/>
</svg>
